# xmcd
#
# Track frame offsets:
#	150
#	12350
#	24558
#	37454
#	46964
#	56801
#	73163
#	87460
#	100275
#	112369
#	123960
#	137344
#
# Disc length: 2019 seconds
#
# Revision: 0
# Processed by: cddbd v1.5.2PL0 Copyright (c) Steve Scherf et al.
# Submitted via: dBpowerAMP V4.0
#
DISCID=b207e10c
DTITLE=Merle Haggard - Vintage Vaults CD 1 Country Rebel
DYEAR=2007
DGENRE=Country
TTITLE0=Okie From Muskogee
TTITLE1=Workin' Man Blues
TTITLE2=The Fightin' Side Of Me
TTITLE3=The Legend Of Bonnie And Clyde
TTITLE4=Mama Tried
TTITLE5=Hungry Eyes
TTITLE6=Branded Man
TTITLE7=Sing Me Back Home
TTITLE8=I Take A Lot Of Pride In What I Am
TTITLE9=From Graceland To The Promised Land
TTITLE10=Farmer's Daughter
TTITLE11=I'm A Lonesome Fugitive
EXTD=
EXTT0=
EXTT1=
EXTT2=
EXTT3=
EXTT4=
EXTT5=
EXTT6=
EXTT7=
EXTT8=
EXTT9=
EXTT10=
EXTT11=
PLAYORDER=
